<?xml version="1.0" encoding="utf-8"?>
<!-- Generator: Adobe Illustrator 21.0.0, SVG Export Plug-In . SVG Version: 6.00 Build 0)  -->
<svg version="1.1" id="Layer_1" xmlns="http://www.w3.org/2000/svg" xmlns:xlink="http://www.w3.org/1999/xlink" x="0px" y="0px"
	 viewBox="0 0 50 50" style="enable-background:new 0 0 50 50;" xml:space="preserve">
<style type="text/css">
	.st0{fill:#FFFFFF;}
</style>
<rect class="st0" width="50" height="50"/>
<g>
	<path d="M48,2.9c-0.8,1.2-1.6,2.5-2.4,3.7c-1.3,1.9-2.7,3.7-4.1,5.6c-1.5,2-3,4-4.6,5.9c-1.6,2-3.3,4.1-5,6c-1.7,2-3.5,3.9-5.3,5.9
		c-1.1,1.2-2.4,2-3.8,2.7c-0.4,0.2-0.7,0.4-1,0.6c-0.2,0.1-0.3,0.1-0.4-0.1c-0.7-1.4-1.8-2.5-3-3.4c-0.1,0-0.1-0.1-0.2-0.2
		c0.9-1.7,1.8-3.3,3.1-4.7c2.8-2.9,5.8-5.6,8.8-8.3c1.9-1.7,3.9-3.4,5.9-5c2.6-2.1,5.2-4.2,7.8-6.2C44.9,4.5,46,3.8,47.2,3
		c0.3-0.2,0.6-0.3,0.8-0.4C48,2.7,48,2.8,48,2.9z"/>
	<path d="M2.1,44.7c1-0.3,1.8-1,2.5-1.7c1.7-1.6,2.8-3.7,3.6-5.9c0.7-1.9,1.8-3.5,3.5-4.7c1.1-0.8,2.3-1.1,3.6-1.1
		c0.5,0,0.9,0.3,1.3,0.6c1.2,0.9,2.1,2,2.7,3.3c0.2,0.5,0.1,0.9,0,1.3c-0.4,1.7-1,3.4-1.9,4.8c-1.5,2.3-3.6,3.7-6.3,4.2
		c-3,0.5-6,0.1-8.8-0.9C2.2,44.8,2.1,44.8,2.1,44.7L2.1,44.7z"/>
</g>
</svg>
