<?xml version="1.0" encoding="utf-8"?>
<!-- Generator: Adobe Illustrator 21.0.0, SVG Export Plug-In . SVG Version: 6.00 Build 0)  -->
<svg version="1.1" id="Layer_1" xmlns="http://www.w3.org/2000/svg" xmlns:xlink="http://www.w3.org/1999/xlink" x="0px" y="0px"
	 viewBox="0 0 50 50" style="enable-background:new 0 0 50 50;" xml:space="preserve">
<style type="text/css">
	.st0{fill:#FFFFFF;}
</style>
<rect class="st0" width="50" height="50"/>
<path d="M28.4,13.1c3.3,3.3,6.4,6.3,9.9,9.8c-4,3.8-8.1,7.6-11.9,11.6c-1.6,1.7-3.3,2.4-5.5,2.3c-1.6-0.1-2.8-0.4-3.8-1.7
	c-0.4-0.6-1-1-1.5-1.6c-2.9-2.9-2.9-3.9-0.1-6.9C19.8,22.2,24.2,17.7,28.4,13.1z M18.8,24.6c-1.2,1.3-2.6,2.7-3.9,4.1
	c-0.4,0.4-0.6,1.2-0.6,1.8c0.1,1.5,4.4,5.3,5.9,5.5c3.1,0.5,5-1.2,6.7-3.5C24.2,29.9,21.6,27.3,18.8,24.6z"/>
</svg>
