<?xml version="1.0" encoding="utf-8"?>
<!-- Generator: Adobe Illustrator 21.0.0, SVG Export Plug-In . SVG Version: 6.00 Build 0)  -->
<svg version="1.1" id="Layer_1" xmlns="http://www.w3.org/2000/svg" xmlns:xlink="http://www.w3.org/1999/xlink" x="0px" y="0px"
	 viewBox="0 0 50 50" style="enable-background:new 0 0 50 50;" xml:space="preserve">
<style type="text/css">
	.st0{fill:#FFFFFF;}
</style>
<rect class="st0" width="50" height="50"/>
<g>
	<path d="M25.9,18.6c1.9,1.9,3.6,3.6,5.5,5.5c-6.4,6.5-12.8,13-20.3,18.2C10,41.2,8.9,40.1,7.8,39C12.8,31.5,19.3,25.1,25.9,18.6z"
		/>
	<path d="M42.8,12.1c-3.3,3.6-6.7,7.2-10,10.8c-2-1.9-3.8-3.7-5.7-5.6c4.9-4.8,9.8-9.8,15.8-13.4c0.8-0.5,1.7-0.8,2.6-1
		c1.2-0.2,1.6,0.3,1.6,1.6c0,0.3,0,0.7-0.2,0.9c-1.5,2.3-1.1,5-1.5,7.6c-0.1,0.6-0.3,1.2-0.7,1.7c-2.6,2.9-5.3,5.7-8,8.6
		c-0.4,0.5-1,1.3-1.6,0.5c-0.3-0.4-0.2-1.5,0.2-1.9c2.3-2.7,4.8-5.2,7.2-7.9c0.4-0.4,0.5-1.1,0.7-1.7C43,12.2,42.9,12.1,42.8,12.1z"
		/>
	<path d="M7,40c1.1,1.1,2,2,3,3c-1.2,0.8-2.3,1.6-3.6,2.2c-0.3,0.1-1-0.3-1.4-0.6c-0.2-0.2-0.4-0.9-0.2-1.2C5.5,42.3,6.2,41.2,7,40z
		"/>
	<path d="M4.1,44.5C4.6,45,5,45.4,5.4,45.9c-0.8,0.4-1.5,0.8-2.3,1.2C3,47.1,2.9,47,2.9,46.9C3.3,46.2,3.6,45.4,4.1,44.5z"/>
</g>
</svg>
