<?xml version="1.0" encoding="utf-8"?>
<!-- Generator: Adobe Illustrator 21.0.0, SVG Export Plug-In . SVG Version: 6.00 Build 0)  -->
<svg version="1.1" id="Layer_1" xmlns="http://www.w3.org/2000/svg" xmlns:xlink="http://www.w3.org/1999/xlink" x="0px" y="0px"
	 viewBox="0 0 50 50" style="enable-background:new 0 0 50 50;" xml:space="preserve">
<style type="text/css">
	.st0{fill:#FFFFFF;}
</style>
<rect class="st0" width="50" height="50"/>
<g>
	<path d="M11.4,19.5c0.6-0.3,1.3-0.7,1.9-0.8c1.5-0.1,3-0.1,4.5,0c1.1,0,1.7,0.5,1.7,1.4c-0.1,1-0.8,1.3-1.7,1.3c-1.2,0-2.5,0-3.8,0
		c0,4.6,0,9.1,0,13.6c7.3,0,14.5,0,21.8,0c0-4.5,0-9,0-13.6c-1.2,0-2.4,0-3.6,0c-1.2,0-1.8-0.5-1.8-1.3c0-0.9,0.6-1.4,1.8-1.4
		c1.5,0,2.9-0.1,4.4,0c0.7,0.1,1.3,0.5,1.9,0.8c0,5.8,0,11.7,0,17.5c-0.7,0.2-1.3,0.7-2,0.7c-7.8,0-15.5,0-23.3,0
		c-0.7,0-1.3-0.4-2-0.7C11.4,31.2,11.4,25.4,11.4,19.5z"/>
	<path d="M23.7,27.7c0-0.3,0-0.7,0-1c0-4.2,0-8.5,0-12.7c0-1.2,0.4-1.7,1.3-1.7c0.9,0,1.3,0.5,1.3,1.7c0,4.6,0,9.1,0,14
		c0.7-0.7,1.3-1.3,1.9-1.8c0.9-0.8,1.6-0.9,2.2-0.3c0.6,0.6,0.5,1.4-0.3,2.2c-1.3,1.3-2.6,2.6-3.9,3.9c-0.9,0.9-1.5,0.9-2.4,0
		c-1.3-1.3-2.6-2.6-3.9-3.9c-0.7-0.7-0.8-1.6-0.2-2.1c0.8-0.7,1.5-0.4,2.1,0.2c0.6,0.6,1.1,1.2,1.7,1.8
		C23.5,27.8,23.6,27.8,23.7,27.7z"/>
</g>
</svg>
